<?xml version="1.0" encoding="utf-8"?>
<!-- Generator: Adobe Illustrator 18.0.0, SVG Export Plug-In . SVG Version: 6.00 Build 0)  -->
<!DOCTYPE svg PUBLIC "-//W3C//DTD SVG 1.0//EN" "http://www.w3.org/TR/2001/REC-SVG-20010904/DTD/svg10.dtd">
<svg version="1.0" id="Layer_1" xmlns="http://www.w3.org/2000/svg" xmlns:xlink="http://www.w3.org/1999/xlink" x="0px" y="0px"
	 viewBox="0 0 254.3 182.3" enable-background="new 0 0 254.3 182.3" xml:space="preserve">
<g>
	<text transform="matrix(1 0 0 1 88.4183 67.9298)" fill="#010101" font-family="'ArialMT'" font-size="12">less than 10,000</text>
	<text transform="matrix(1 0 0 1 88.4183 87.5677)" fill="#010101" font-family="'ArialMT'" font-size="12">between 10,000 and 50,000</text>
	<text transform="matrix(1 0 0 1 88.4183 108.6349)" fill="#010101" font-family="'ArialMT'" font-size="12">bewteen 50,000 and 100,000</text>
	<text transform="matrix(1 0 0 1 88.4183 131.2045)" fill="#010101" font-family="'ArialMT'" font-size="12">between 100,000 and 600,000</text>
	<text transform="matrix(1 0 0 1 88.4183 160.822)" fill="#010101" font-family="'ArialMT'" font-size="12">more than 1,500,000</text>
</g>
<path id="link_line252_1_" fill="#3486B5" stroke="#FFFFFF" stroke-width="0.5" stroke-miterlimit="10" d="M6.3,122.1l0,9.5l70.8,0
	l-14-19.2l0,9.7L6.3,122.1z"/>
<polygon fill="#C9C9C9" points="77.1,65.2 6.7,65.2 6.7,64.2 75.5,64.1 75.5,62.5 78,65.2 "/>
<path id="link_line258_1_" fill="#073958" d="M6.7,144.6l-0.1,27.6l70.2,0.1L63,135l0,9.7L6.7,144.6z"/>
<path id="link_line233_1_" fill="#358EBD" d="M6.6,103.2l0,5.3h70L62.6,93.4l0,9.7L6.6,103.2z"/>
<path id="link_line194_1_" fill="#3690C0" d="M6.5,84.9l0,2.6l70.5,0L63,75.1l0,9.7L6.5,84.9z"/>
<text transform="matrix(1 0 0 1 6.303 20.5964)" enable-background="new    "><tspan x="0" y="0" fill="#010101" font-family="'ArialMT'" font-size="12">Number of migrants in West and Central</tspan><tspan x="0" y="14.4" fill="#010101" font-family="'ArialMT'" font-size="12">Africa in 2015</tspan></text>
</svg>
