<?xml version="1.0" encoding="utf-8"?>
<!-- Generator: Adobe Illustrator 18.0.0, SVG Export Plug-In . SVG Version: 6.00 Build 0)  -->
<!DOCTYPE svg PUBLIC "-//W3C//DTD SVG 1.0//EN" "http://www.w3.org/TR/2001/REC-SVG-20010904/DTD/svg10.dtd">
<svg version="1.0" id="Layer_1" xmlns="http://www.w3.org/2000/svg" xmlns:xlink="http://www.w3.org/1999/xlink" x="0px" y="0px"
	 viewBox="0 0 254.3 165" enable-background="new 0 0 254.3 165" xml:space="preserve">
<g>
	<text transform="matrix(1 0 0 1 88.4183 50.5964)" fill="#010101" font-family="'ArialMT'" font-size="12">less than 10,000</text>
	<text transform="matrix(1 0 0 1 88.4183 70.2343)" fill="#010101" font-family="'ArialMT'" font-size="12">between 10,000 and 50,000</text>
	<text transform="matrix(1 0 0 1 88.4183 91.3015)" fill="#010101" font-family="'ArialMT'" font-size="12">bewteen 50,000 and 100,000</text>
	<text transform="matrix(1 0 0 1 88.4183 113.8712)" fill="#010101" font-family="'ArialMT'" font-size="12">between 100,000 and 600,000</text>
	<text transform="matrix(1 0 0 1 88.4183 143.4887)" fill="#010101" font-family="'ArialMT'" font-size="12">more than 1,500,000</text>
</g>
<path id="link_line252_1_" fill="#3486B5" stroke="#FFFFFF" stroke-width="0.5" stroke-miterlimit="10" d="M6.3,104.8l0,9.5l70.8,0
	l-14-19.2l0,9.7L6.3,104.8z"/>
<polygon fill="#C9C9C9" points="77.1,47.9 6.7,47.9 6.7,46.9 75.5,46.8 75.5,45.2 78,47.9 "/>
<path id="link_line258_1_" fill="#073958" d="M6.7,127.2l-0.1,27.6l70.2,0.1L63,117.6l0,9.7L6.7,127.2z"/>
<path id="link_line233_1_" fill="#358EBD" d="M6.6,85.9l0,5.3h70L62.6,76.1l0,9.7L6.6,85.9z"/>
<path id="link_line194_1_" fill="#3690C0" d="M6.5,67.6l0,2.6l70.5,0L63,57.8l0,9.7L6.5,67.6z"/>
<text transform="matrix(1 0 0 1 6.303 22.2631)" fill="#010101" font-family="'ArialMT'" font-size="12">Number of migrants in 2015</text>
</svg>
